<?xml version="1.0" encoding="utf-8"?>
<!-- Generator: Adobe Illustrator 21.1.0, SVG Export Plug-In . SVG Version: 6.00 Build 0)  -->
<!DOCTYPE svg PUBLIC "-//W3C//DTD SVG 1.1//EN" "http://www.w3.org/Graphics/SVG/1.1/DTD/svg11.dtd">
<svg version="1.1" id="Layer_1" xmlns="http://www.w3.org/2000/svg" xmlns:xlink="http://www.w3.org/1999/xlink" x="0px" y="0px"
	 width="400px" height="400px" viewBox="0 0 400 400" style="enable-background:new 0 0 400 400;" xml:space="preserve">
<path d="M200,0c110.3,0,200,89.7,200,200s-89.7,200-200,200S0,310.3,0,200S89.7,0,200,0z M313.4,282.5L230.9,200l82.2-82.5
	c1.2-1.2,1.2-3.1,0-4.4l-26.6-26.6c-1.2-1.2-3.1-1.2-4.4,0L200,169.1l-82.2-82.2c-1.2-1.2-3.1-1.2-4.4,0l-26.6,26.6
	c-1.2,1.2-1.2,3.1,0,4.4l81.9,82.2l-82.2,82.2c-1.2,1.2-1.2,3.1,0,4.4l26.6,26.6c1.3,1.3,3.4,1.3,4.4,0l82.5-82.2l82.2,82.2
	c1.2,1.2,3.4,1.2,4.7,0.3l26.6-26.6C314.7,285.6,314.7,283.8,313.4,282.5z"/>
</svg>
